<?xml version="1.0" encoding="UTF-8"?>
<!DOCTYPE svg PUBLIC "-//W3C//DTD SVG 1.1//EN" "http://www.w3.org/Graphics/SVG/1.1/DTD/svg11.dtd">
<!-- Creator: CorelDRAW -->
<svg xmlns="http://www.w3.org/2000/svg" xml:space="preserve" width="3.91617in" height="3.91617in" version="1.1" style="shape-rendering:geometricPrecision; text-rendering:geometricPrecision; image-rendering:optimizeQuality; fill-rule:evenodd; clip-rule:evenodd"
viewBox="0 0 940.74 940.74"
 xmlns:xlink="http://www.w3.org/1999/xlink"
 xmlns:xodm="http://www.corel.com/coreldraw/odm/2003">
 <defs>
  <style type="text/css">
   <![CDATA[
    .fil0 {fill:black}
   ]]>
  </style>
 </defs>
 <g id="Layer_x0020_1">
  <metadata id="CorelCorpID_0Corel-Layer"/>
  <g id="_2801351218080">
   <path class="fil0" d="M286.63 859.9l102.89 0 0 -198.44c0,-35.1 49.21,-22.05 139.64,-22.05 16.94,0 22.05,5.11 22.05,22.05l0 198.44 102.89 0 0 -374.83 -367.48 0 0 374.83z"/>
   <path class="fil0" d="M683.51 837.85c0,16.93 5.11,22.05 22.05,22.05l220.49 0 0 -374.83 -242.54 0 0 352.78z"/>
   <path class="fil0" d="M14.7 859.9l220.49 0c16.93,0 22.05,-5.11 22.05,-22.05l0 -352.78 -242.54 0 0 374.83z"/>
   <path class="fil0" d="M235.19 323.38l463.02 0c-7.6,-28.46 -51.97,-73.5 -88.19,-73.5l-301.33 0c-27.48,0 -60.65,54.31 -73.5,73.5z"/>
   <path class="fil0" d="M257.23 51.45l0 14.7c51.97,1.16 175.01,51.45 213.14,51.45 35.79,0 155.74,-46.67 213.14,-51.45l0 -14.7c-48.46,-1.08 -174.77,-51.45 -213.14,-51.45 -34.66,0 -166.26,50.4 -213.14,51.45z"/>
   <path class="fil0" d="M330.73 220.49l279.28 0 0 -102.89c-48.4,1.08 -99.55,29.4 -139.64,29.4 -44.24,0 -86.46,-29.4 -139.64,-29.4l0 102.89z"/>
   <polygon class="fil0" points="249.88,940.74 690.86,940.74 690.86,889.3 249.88,889.3 "/>
   <polygon class="fil0" points="418.92,859.9 521.82,859.9 521.82,668.81 418.92,668.81 "/>
   <path class="fil0" d="M235.19 389.53l470.37 0c24.44,0 21.52,-13.2 22.05,-36.75l-514.47 0c0.52,23.55 -2.39,36.75 22.05,36.75z"/>
   <polygon class="fil0" points="249.88,455.67 690.86,455.67 690.86,418.92 249.88,418.92 "/>
   <path class="fil0" d="M720.26 455.67l191.09 0c-7.57,-90.92 -68.89,-73.5 -139.64,-73.5 -21.46,0 -1.9,-7.65 -32.82,25.97 -20.99,22.82 -18.62,5.55 -18.62,47.52z"/>
   <path class="fil0" d="M29.4 455.67l191.09 0c0,-32.17 8.45,-24.06 -29.17,-59.03 -24.16,-22.45 -6.58,-14.47 -110.48,-14.47 -31.4,0 -45.07,46.14 -51.45,73.5z"/>
   <polygon class="fil0" points="-0,926.04 220.49,926.04 220.49,889.3 -0,889.3 "/>
   <polygon class="fil0" points="720.26,926.04 940.74,926.04 940.74,889.3 720.26,889.3 "/>
   <path class="fil0" d="M654.11 161.69c0,11.58 9.09,23.81 14.54,29.56 10.74,11.33 11.77,10.39 29.56,14.54 22.07,-39.29 -7.35,-32.89 -7.35,-58.8l0 -58.8 -36.75 0 0 73.49z"/>
  </g>
 </g>
</svg>
